<svg id="Capa_1" enable-background="new 0 0 512 512" height="512" viewBox="0 0 512 512" width="512" xmlns="http://www.w3.org/2000/svg"><g><path d="m233.345 299.868-17.677-17.678-205.061 205.061v14.142l10.606 10.607z" fill="#93b7c0"/><path d="m-38.631 382.524h300v15h-300z" fill="#acd5df" transform="matrix(.707 -.707 .707 .707 -243.169 192.985)"/><path d="m425.291 179.87-67.794-67.794-130.815 130.815 93.113 93.113z" fill="#340d66"/><path d="m332.13 86.709-156.134 105.496 71.9 71.899 130.814-130.814z" fill="#4b27a8"/><path d="m421.137 90.863-53.033 10.607-10.607 53.033 37.83 37.83c29.242 29.242 76.823 29.243 106.066 0l10.607-10.607z" fill="#4b27a8"/><path d="m330.274 0-10.607 10.607c-29.243 29.243-29.242 76.824 0 106.066l37.83 37.83 63.64-63.64z" fill="#6241ea"/><path d="m338.759 461.034c40.94-40.94 40.939-107.553 0-148.492l-69.65-69.65-67.583 25.157-17.27 59.696 143.896 143.895z" fill="#4b27a8"/><path d="m199.459 173.241c-40.939-40.939-107.553-40.94-148.492 0l-10.607 10.607 143.896 143.896 84.853-84.853z" fill="#6241ea"/></g></svg>